Coordinates
version=1
nRows=26
nColumns=24
inDegrees=yes

Units are S.I. units (second, meters, Newtons, ...)
Angles are in degrees.

endheader
time	pelvis_tilt	pelvis_list	pelvis_rotation	pelvis_tx	pelvis_ty	pelvis_tz	hip_flexion_r	hip_adduction_r	hip_rotation_r	knee_angle_r	ankle_angle_r	subtalar_angle_r	mtp_angle_r	hip_flexion_l	hip_adduction_l	hip_rotation_l	knee_angle_l	ankle_angle_l	subtalar_angle_l	mtp_angle_l	lumbar_extension	lumbar_bending	lumbar_rotation
      1.71500000	     -7.60029496	     -1.25121993	      1.39117944	      0.43783630	      1.28874709	     -0.89150425	     10.65950396	      6.29930272	     11.45344444	     -4.56495087	     -2.18029398	     -6.25137507	     -2.61767351	     24.97104680	      3.29862122	     -2.43046020	    -56.06636868	     -7.90298874	    -30.33551879	      7.31108439	     -0.74244886	      5.58208411	      0.53797465
      1.72000000	     -7.47322940	     -1.18130752	      1.20691405	      0.44400925	      1.28915622	     -0.89129510	      9.72676203	      6.22508158	     11.62774967	     -3.94655807	     -2.04911502	     -6.11933806	     -2.55455688	     25.42006073	      3.45685048	     -2.33443677	    -55.24604688	     -7.22830658	    -29.94588089	      7.51252664	     -0.87909823	      5.54779328	      0.77409786
      1.72500000	     -7.37130016	     -1.10226617	      0.97326754	      0.45016391	      1.28947549	     -0.89104688	      8.84413783	      6.14320344	     11.90801459	     -3.36191724	     -1.96143744	     -5.96125957	     -2.52163101	     25.85905865	      3.60515426	     -2.29277275	    -54.32122006	     -6.72625634	    -29.83155754	      7.56916256	     -0.99193104	      5.50249063	      1.06557370
      1.73000000	     -7.19176039	     -1.05507830	      0.78899798	      0.45632558	      1.28975024	     -0.89085632	      7.83671007	      6.07811910	     12.13583700	     -2.70597185	     -1.84212077	     -5.93350864	     -2.47174279	     26.20893555	      3.72538522	     -2.20713700	    -53.36189981	     -6.19223448	    -29.49644379	      7.67489288	     -1.18608317	      5.49139117	      1.31734735
      1.73500000	     -7.10297550	     -0.99989738	      0.60181636	      0.46248839	      1.28987917	     -0.89069898	      6.96219957	      5.99540932	     12.41863692	     -2.10998811	     -1.76513475	     -5.87613214	     -2.42746215	     26.62515242	      3.88013474	     -2.07203780	    -52.30920253	     -5.70407360	    -29.29905409	      7.72742183	     -1.27713817	      5.47561543	      1.51469751
      1.74000000	     -6.90487156	     -0.98117221	      0.43332670	      0.46861624	      1.28999030	     -0.89052584	      5.93690214	      5.94518161	     12.69054263	     -1.45153479	     -1.66824418	     -5.94693827	     -2.35994808	     26.91863916	      3.96896336	     -1.95227879	    -51.23032222	     -5.22577874	    -28.93937459	      7.80852346	     -1.49348004	      5.48771349	      1.74334144
      1.74500000	     -6.73867800	     -0.97235992	      0.26897097	      0.47470153	      1.28997926	     -0.89040487	      4.96418461	      5.89502161	     12.99708574	     -0.81692971	     -1.59865374	     -6.05946141	     -2.26367537	     27.23099020	      4.06379351	     -1.78731357	    -50.09647476	     -4.75755873	    -28.59932469	      7.87470263	     -1.68814246	      5.52124511	      1.93814825
      1.75000000	     -6.59406746	     -0.97033461	      0.10375263	      0.48081288	      1.28987742	     -0.89027142	      4.02970946	      5.84968200	     13.30616783	     -0.21249551	     -1.52015290	     -6.17557375	     -2.16803722	     27.53829616	      4.13963874	     -1.62905060	    -48.89478962	     -4.36098835	    -28.32974807	      7.91095278	     -1.84937107	      5.55544788	      2.12202610
      1.75500000	     -6.44360773	     -0.98019246	     -0.05325410	      0.48688518	      1.28969103	     -0.89016571	      3.10203898	      5.81079730	     13.61497235	      0.37275416	     -1.43437168	     -6.31154976	     -2.07286297	     27.82152558	      4.20275601	     -1.45337339	    -47.64050023	     -4.00829738	    -28.08863219	      7.92833624	     -2.02760209	      5.60669107	      2.28947271
      1.76000000	     -6.29952125	     -1.00111399	     -0.21142792	      0.49294397	      1.28941735	     -0.89006416	      2.19847124	      5.78153154	     13.91487606	      0.92997359	     -1.33937126	     -6.46827814	     -1.97300807	     28.09386196	      4.24184764	     -1.28150283	    -46.34289287	     -3.69685576	    -27.85976418	      7.93360547	     -2.20238150	      5.67112447	      2.45112743
      1.76500000	     -6.17231261	     -1.05047554	     -0.35812374	      0.49898602	      1.28902827	     -0.88996453	      1.31570394	      5.78066180	     14.23775243	      1.49118831	     -1.30917804	     -6.79144349	     -1.70183839	     28.37732254	      4.24069896	     -1.10082292	    -45.02548311	     -3.34349911	    -27.56419197	      7.92565266	     -2.36074350	      5.76524574	      2.57798835
      1.77000000	     -6.03062560	     -1.08171670	     -0.53773196	      0.50497983	      1.28861242	     -0.88984191	      0.48093956	      5.76656934	     14.52620177	      1.93047978	     -1.12031076	     -6.85362575	     -1.64425059	     28.60187414	      4.23433938	     -0.95736381	    -43.61367779	     -3.16303535	    -27.43689934	      7.90286308	     -2.55010991	      5.83993660	      2.76626131
      1.77500000	     -5.90732326	     -1.13591452	     -0.69473079	      0.51097967	      1.28808218	     -0.88976817	     -0.33487090	      5.77314547	     14.76228031	      2.37398526	     -0.94751668	     -6.96934309	     -1.58525188	     28.83892970	      4.20383441	     -0.79848205	    -42.18783265	     -2.96891435	    -27.29548218	      7.87865667	     -2.72247136	      5.94974159	      2.90459992
      1.78000000	     -5.76121952	     -1.21147163	     -0.85273508	      0.51691453	      1.28751183	     -0.88965429	     -1.13721494	      5.81011460	     15.02247012	      2.74890447	     -0.77757980	     -7.09438963	     -1.50274802	     29.02825489	      4.13404383	     -0.63202289	    -40.71620830	     -2.81014891	    -27.13660330	      7.85272068	     -2.92678314	      6.06082107	      3.05551303
      1.78500000	     -5.63475653	     -1.30243810	     -1.01731084	      0.52281808	      1.28683946	     -0.88956141	     -1.89448359	      5.86492420	     15.26663409	      3.08428178	     -0.57682625	     -7.21515232	     -1.40028608	     29.22610831	      4.03281904	     -0.48174324	    -39.22379903	     -2.66974682	    -26.99208583	      7.81593240	     -3.12472615	      6.20165699	      3.20686612
      1.79000000	     -5.57092895	     -1.39897576	     -1.18603844	      0.52876316	      1.28603629	     -0.88948026	     -2.56270121	      5.92953903	     15.47923299	      3.37572540	     -0.30414466	     -7.29271751	     -1.32562826	     29.47187480	      3.91055277	     -0.35315448	    -37.70583708	     -2.54125008	    -26.88746137	      7.77752984	     -3.24745172	      6.35587869	      3.35519659
      1.79500000	     -5.43351025	     -1.51352466	     -1.37407021	      0.53458533	      1.28528356	     -0.88934488	     -3.25525744	      6.02398434	     15.71716144	      3.57275326	     -0.07639832	     -7.35654362	     -1.19551937	     29.60173574	      3.74188401	     -0.24338682	    -36.12362230	     -2.47686542	    -26.75062777	      7.72511825	     -3.47774903	      6.51192431	      3.53359961
      1.80000000	     -5.33534725	     -1.63721300	     -1.55480837	      0.54038467	      1.28441928	     -0.88920629	     -3.88337565	      6.13375053	     15.92502485	      3.72952717	      0.21059326	     -7.40206316	     -1.05923187	     29.76135912	      3.55355517	     -0.14382642	    -34.52481556	     -2.42088700	    -26.63757482	      7.66502844	     -3.67202434	      6.67866344	      3.69441463
      1.80500000	     -5.25661032	     -1.77535632	     -1.73925306	      0.54618133	      1.28348648	     -0.88907588	     -4.46496716	      6.26386184	     16.11327796	      3.83644506	      0.52296803	     -7.40600197	     -0.90755981	     29.91845951	      3.33677314	     -0.06091826	    -32.89928133	     -2.38664262	    -26.53889650	      7.59507455	     -3.84456885	      6.86122334	      3.86476375
      1.81000000	     -5.17615256	     -1.93007899	     -1.90970128	      0.55198878	      1.28250383	     -0.88897992	     -5.03519664	      6.41402472	     16.23746903	      3.91517278	      0.83825461	     -7.34968945	     -0.61488440	     30.04606681	      3.10395502	      0.02788300	    -31.24440046	     -2.35607435	    -26.47624494	      7.46908639	     -4.02218915	      7.05801338	      4.02462069
      1.81500000	     -5.15183733	     -2.10292966	     -2.11588614	      0.55773441	      1.28142920	     -0.88885624	     -5.49138618	      6.59324324	     16.43563060	      3.89202586	      1.22891835	     -7.29550135	     -0.49862884	     30.22518864	      2.81859598	      0.06803067	    -29.58724157	     -2.38144465	    -26.36968234	      7.40187625	     -4.15879283	      7.28188580	      4.19726679
      1.82000000	     -5.16931696	     -2.27869516	     -2.29949685	      0.56356163	      1.28027014	     -0.88876694	     -5.90716814	      6.77873743	     16.57256538	      3.86541510	      1.61749845	     -7.24819264	     -0.40593114	     30.41680251	      2.53726236	      0.12229685	    -27.90193051	     -2.36447631	    -26.27887952	      7.33734982	     -4.22939944	      7.50356844	      4.36345195
      1.82500000	     -5.12442872	     -2.48339553	     -2.51978114	      0.56929165	      1.27915963	     -0.88866804	     -6.34967561	      6.99196182	     16.73256437	      3.76910712	      2.00017186	     -7.03696529	     -0.21717646	     30.51518085	      2.19639329	      0.10753267	    -26.19753764	     -2.42106067	    -26.19607407	      7.23540313	     -4.40234714	      7.76059327	      4.55859877
      1.83000000	     -5.16616137	     -2.68083749	     -2.70541958	      0.57513761	      1.27792812	     -0.88861846	     -6.70815212	      7.20479915	     16.82376976	      3.67227757	      2.42863160	     -6.90822364	     -0.07082494	     30.67931427	      1.88015445	      0.12808907	    -24.48000622	     -2.43665824	    -26.10104798	      7.14951846	     -4.44943627	      8.00658542	      4.72864036
      1.83500000	     -5.17849515	     -2.90322542	     -2.91900917	      0.58091030	      1.27671790	     -0.88856254	     -7.06348992	      7.44129401	     16.93755098	      3.51356055	      2.84212643	     -6.61992844	      0.16186011	     30.79845862	      1.51705940	      0.09395017	    -22.77608991	     -2.47990195	    -26.01188826	      7.03407397	     -4.55745744	      8.28175541	      4.90569604
      1.84000000	     -5.21821959	     -3.12406004	     -3.06716087	      0.58680869	      1.27544628	     -0.88860950	     -7.40295895	      7.68105777	     16.86096033	      3.36051802	      3.32834179	     -6.19984803	      0.59126850	     30.91932262	      1.19796943	      0.13841316	    -21.07029938	     -2.48051380	    -25.90550038	      6.83062325	     -4.59894295	      8.54745248	      5.05273907
